<?xml version="1.0" standalone="no"?>
<!DOCTYPE svg PUBLIC "-//W3C//DTD SVG 20010904//EN"
 "http://www.w3.org/TR/2001/REC-SVG-20010904/DTD/svg10.dtd">
<svg version="1.0" xmlns="http://www.w3.org/2000/svg"
 width="512.000000pt" height="512.000000pt" viewBox="0 0 512.000000 512.000000"
 preserveAspectRatio="xMidYMid meet">

<g transform="translate(0.000000,512.000000) scale(0.100000,-0.100000)"
fill="#000000" stroke="none">
<path d="M3290 4699 c-219 -57 -444 -217 -570 -405 -109 -164 -158 -306 -167
-483 l-6 -114 90 6 c307 20 602 254 740 588 43 105 63 198 70 317 l6 112 -44
-1 c-24 0 -78 -9 -119 -20z"/>
<path d="M3187 3634 c-37 -8 -125 -35 -195 -60 -70 -25 -176 -63 -237 -85
-166 -59 -196 -56 -465 46 -242 91 -333 111 -480 102 -461 -29 -859 -365 -994
-842 -131 -465 -56 -1050 208 -1610 151 -318 439 -700 615 -813 104 -68 162
-86 271 -86 112 1 136 7 339 86 188 73 254 88 396 88 143 0 211 -16 392 -88
171 -69 224 -82 331 -82 178 0 331 84 485 264 139 163 312 429 395 606 45 97
125 300 120 305 -2 1 -28 15 -58 30 -427 214 -636 712 -490 1167 64 199 192
373 376 509 l55 40 -33 46 c-44 61 -160 169 -231 216 -88 59 -217 116 -325
144 -125 32 -368 41 -475 17z"/>
</g>
</svg>
